<svg id="filled_outline" height="512" viewBox="0 0 512 512" width="512" xmlns="http://www.w3.org/2000/svg" data-name="filled outline"><path d="m440 288v168a32 32 0 0 1 -32 32h-304a32 32 0 0 1 -32-32v-168z" fill="#548aff"/><path d="m440 157.25v66.75h-368v-168a32.004 32.004 0 0 1 32-32h202.75a32.06422 32.06422 0 0 1 22.62 9.37l101.26 101.26a32.06422 32.06422 0 0 1 9.37 22.62z" fill="#548aff"/><circle cx="256" cy="256" fill="#e33d3d" r="80"/><path d="m437.12 144h-85.12a32.004 32.004 0 0 1 -32-32v-85.12a31.82536 31.82536 0 0 1 9.37 6.49l101.26 101.26a31.82536 31.82536 0 0 1 6.49 9.37z" fill="#7dafff"/><path d="m216 72h64v16h-64z"/><path d="m168 72h24v16h-24z"/><path d="m192 120h88v16h-88z"/><path d="m120 120h48v16h-48z"/><path d="m312 376h80v16h-80z"/><path d="m208 376h80v16h-80z"/><path d="m120 376h64v16h-64z"/><path d="m368 424h24v16h-24z"/><path d="m280 424h64v16h-64z"/><path d="m120 424h136v16h-136z"/><path d="m120 216h32v16h-32z"/><path d="m360 216h24v16h-24z"/><path d="m120 280h32v16h-32z"/><path d="m104 496h304a40.04521 40.04521 0 0 0 40-40v-168a7.99977 7.99977 0 0 0 -8-8h-32v16h24v160a24.02687 24.02687 0 0 1 -24 24h-304a24.02687 24.02687 0 0 1 -24-24v-160h16v-16h-24a7.99977 7.99977 0 0 0 -8 8v168a40.04521 40.04521 0 0 0 40 40z"/><path d="m360 280h24v16h-24z"/><path d="m256 344a88 88 0 1 0 -88-88 88.09957 88.09957 0 0 0 88 88zm0-160a72 72 0 1 1 -72 72 72.08187 72.08187 0 0 1 72-72z"/><path d="m229.657 293.657 26.343-26.344 26.343 26.344 11.314-11.314-26.344-26.343 26.344-26.343-11.314-11.314-26.343 26.344-26.343-26.344-11.314 11.314 26.344 26.343-26.344 26.343z"/><path d="m72 232h24v-16h-16v-160a24.02687 24.02687 0 0 1 24-24h202.74512a24.1887 24.1887 0 0 1 5.25488.581v79.419a40.04521 40.04521 0 0 0 40 40h48v-16h-48a24.02687 24.02687 0 0 1 -24-24v-68.68652l96.9707 96.9707a23.84457 23.84457 0 0 1 7.0293 16.9707v58.74512h-24v16h32a7.99977 7.99977 0 0 0 8-8v-66.74512a39.73644 39.73644 0 0 0 -11.71582-28.28418l-101.25488-101.25488a39.73644 39.73644 0 0 0 -28.28418-11.71582h-202.74512a40.04521 40.04521 0 0 0 -40 40v168a7.99977 7.99977 0 0 0 8 8z"/></svg>